<?xml version="1.0" encoding="UTF-8" standalone="no"?>
<!DOCTYPE svg PUBLIC "-//W3C//DTD SVG 1.1//EN" "http://www.w3.org/Graphics/SVG/1.1/DTD/svg11.dtd">
<svg width="100%" height="100%" viewBox="0 0 96 96" version="1.1" xmlns="http://www.w3.org/2000/svg" xmlns:xlink="http://www.w3.org/1999/xlink" xml:space="preserve" xmlns:serif="http://www.serif.com/" fill="#273006" style="fill-rule:evenodd;clip-rule:evenodd;stroke-linejoin:round;stroke-miterlimit:2;">
    <g transform="matrix(1,0,0,1,-924.04,-538.612)">
        <g id="noun-hiking-3592792.svg" transform="matrix(1.06325,0,0,1.06325,971.886,598.419)">
            <g transform="matrix(1,0,0,1,-45,-56.25)">
                <path d="M38.344,69.15L51.01,69.15C52.801,69.15 54.395,69.687 55.485,70.49C56.579,71.291 57.145,72.291 57.145,73.353L57.145,81.859L32.209,81.859L32.209,73.353C32.209,72.29 32.781,71.29 33.869,70.49C34.963,69.688 36.557,69.15 38.344,69.15ZM70.266,62.656L75.245,62.656C75.927,62.656 76.308,62.853 76.641,63.213C76.979,63.568 77.25,64.135 77.385,64.85C77.656,66.282 77.322,68.213 76.641,69.391C74.854,72.491 72.932,74.229 70.207,74.854C70.238,74.53 70.266,74.204 70.266,73.87L70.266,62.656ZM14.109,62.656L19.093,62.656L19.093,73.869C19.093,74.203 19.114,74.537 19.15,74.859C16.421,74.234 14.505,72.49 12.712,69.39C12.036,68.212 11.696,66.281 11.968,64.849C12.103,64.134 12.374,63.568 12.712,63.212C13.053,62.854 13.428,62.656 14.109,62.656ZM52.119,44.918C53.191,44.918 54.019,45.75 54.019,46.822L54.019,56.138C54.019,57.212 53.191,58.04 52.119,58.04C51.047,58.04 50.213,57.212 50.213,56.138L50.213,46.822C50.213,45.75 51.047,44.918 52.119,44.918ZM37.24,44.918C38.312,44.918 39.14,45.75 39.14,46.822L39.14,56.138C39.14,57.212 38.312,58.04 37.24,58.04C36.162,58.04 35.334,57.212 35.334,56.138L35.334,46.822C35.334,45.75 36.162,44.918 37.24,44.918ZM67.422,17.984L71.613,17.984C73.426,17.984 74.884,19.463 74.884,21.39L74.884,28.906C74.884,30.838 73.425,32.322 71.613,32.322L67.422,32.322L67.422,17.984ZM61.348,17.984L65.157,17.984L65.157,32.322L61.348,32.322L61.348,17.984ZM30.275,17.984L59.078,17.984L59.078,32.322L30.275,32.322L30.275,17.984ZM24.203,17.984L28.01,17.984L28.01,32.322L24.203,32.322L24.203,17.984ZM17.74,17.984L21.937,17.984L21.937,32.322L17.74,32.322C15.931,32.322 14.474,30.838 14.474,28.906L14.474,21.39C14.475,19.463 15.932,17.984 17.74,17.984ZM42.813,11.672L46.547,11.672C48.5,11.672 49.672,11.969 50.26,12.447C50.848,12.922 51.182,13.978 51.182,15.713L38.178,15.713C38.178,13.979 38.51,12.922 39.1,12.447C39.688,11.969 40.859,11.672 42.813,11.672ZM40.166,6.963L49.187,6.963C52.3,6.963 54.222,7.734 55.462,9.151C56.65,10.516 57.29,12.667 57.343,15.714L53.447,15.714C53.447,13.651 52.953,11.708 51.681,10.683C50.415,9.658 48.702,9.408 46.546,9.408L42.812,9.408C40.656,9.408 38.943,9.658 37.671,10.683C36.405,11.708 35.911,13.652 35.905,15.714L32.014,15.714C32.061,12.667 32.696,10.517 33.883,9.151C35.125,7.734 37.053,6.963 40.166,6.963ZM40.166,4.693C36.662,4.693 33.937,5.65 32.182,7.662C30.491,9.598 29.797,12.338 29.75,15.713L17.74,15.713C14.677,15.713 12.203,18.287 12.203,21.391L12.203,28.907C12.203,31.673 14.156,34.011 16.744,34.495L16.744,38.573C16.744,41.069 17.603,43.391 19.103,45.46C19.099,45.507 19.093,45.558 19.093,45.605L19.093,60.392L14.109,60.392C12.88,60.392 11.802,60.876 11.068,61.646C10.338,62.417 9.931,63.402 9.74,64.429C9.353,66.486 9.74,68.773 10.75,70.527C12.938,74.312 15.834,76.736 19.76,77.277C21.375,81.304 25.76,84.127 30.823,84.127L58.536,84.127C63.599,84.127 67.985,81.305 69.595,77.273C73.521,76.726 76.423,74.312 78.605,70.527C79.621,68.773 80.005,66.486 79.615,64.429C79.424,63.402 79.021,62.417 78.287,61.646C77.558,60.876 76.474,60.392 75.246,60.392L70.267,60.392L70.267,51.667C70.292,51.022 69.777,50.479 69.13,50.479C68.485,50.479 67.97,51.022 68.001,51.667L68.001,73.87C68.001,77.974 64.323,81.448 59.411,81.819L59.411,73.354C59.411,71.463 58.364,69.797 56.829,68.666C55.292,67.537 53.245,66.881 51.011,66.881L38.344,66.881C36.11,66.881 34.063,67.537 32.526,68.666C30.991,69.797 29.944,71.463 29.944,73.354L29.944,81.819C25.032,81.444 21.36,77.973 21.36,73.87L21.36,47.953C23.401,49.812 26.016,51.363 29.006,52.506C30.444,53.115 31.291,50.901 29.819,50.391C23.157,47.844 19.01,43.391 19.01,38.573L19.01,34.589L70.344,34.589L70.344,38.573C70.344,41.46 68.901,44.167 66.266,46.473C63.823,48.616 60.36,50.354 56.291,51.407L56.291,46.823C56.291,44.532 54.41,42.651 52.119,42.651C49.828,42.651 47.947,44.532 47.947,46.823L47.947,52.532L41.406,52.532L41.406,46.823C41.406,44.532 39.531,42.651 37.24,42.651C34.947,42.651 33.068,44.532 33.068,46.823L33.068,56.139C33.068,58.432 34.947,60.307 37.24,60.307C39.531,60.307 41.406,58.432 41.406,56.139L41.406,54.803L47.947,54.803L47.947,56.139C47.947,58.432 49.828,60.307 52.119,60.307C54.41,60.307 56.291,58.432 56.291,56.139L56.291,53.746C60.891,52.637 64.859,50.719 67.754,48.182C70.75,45.557 72.609,42.225 72.609,38.573L72.609,34.495C75.197,34.011 77.15,31.667 77.15,28.907L77.15,21.391C77.15,18.287 74.681,15.713 71.613,15.713L59.609,15.713C59.562,12.338 58.869,9.598 57.175,7.662C55.421,5.65 52.696,4.693 49.187,4.693L40.166,4.693Z" style="fill-rule:nonzero;"/>
            </g>
        </g>
    </g>
</svg>
