<?xml version="1.0" encoding="UTF-8" standalone="no"?>
<!DOCTYPE svg PUBLIC "-//W3C//DTD SVG 1.1//EN" "http://www.w3.org/Graphics/SVG/1.1/DTD/svg11.dtd">
<svg width="100%" height="100%" viewBox="0 0 76 76" version="1.1" xmlns="http://www.w3.org/2000/svg" xmlns:xlink="http://www.w3.org/1999/xlink" xml:space="preserve" xmlns:serif="http://www.serif.com/" fill="#273006" style="fill-rule:evenodd;clip-rule:evenodd;stroke-linejoin:round;stroke-miterlimit:2;">
    <g transform="matrix(1,0,0,1,-340.353,-107.412)">
        <g id="noun-explore-2898227.svg" transform="matrix(0.751085,0,0,0.751085,377.907,154.355)">
            <g transform="matrix(1,0,0,1,-50,-62.5)">
                <path d="M50,5C25.2,5 5,25.2 5,50C5,74.8 25.2,95 50,95C74.8,95 95,74.8 95,50C95,25.2 74.8,5 50,5ZM50,91C27.4,91 9,72.6 9,50C9,27.4 27.4,9 50,9C72.6,9 91,27.4 91,50C91,72.6 72.6,91 50,91ZM74.9,25.4C74.9,25.3 74.8,25.3 74.8,25.2C74.7,25.1 74.7,25.1 74.6,25.1C68.3,18.9 59.6,15 50,15C40.4,15 31.7,18.9 25.4,25.1C25.3,25.1 25.3,25.2 25.2,25.2C25.1,25.3 25.1,25.3 25.1,25.4C18.9,31.7 15,40.4 15,50C15,59.6 18.9,68.3 25.1,74.6C25.1,74.7 25.2,74.7 25.2,74.8C25.3,74.9 25.3,74.9 25.4,74.9C31.7,81.1 40.4,85 50,85C59.6,85 68.3,81.1 74.6,74.9C74.7,74.9 74.7,74.8 74.8,74.8C74.9,74.8 74.9,74.7 74.9,74.6C81.1,68.3 85,59.6 85,50C85,40.4 81.1,31.7 74.9,25.4ZM75,52L80.9,52C80.4,59 77.6,65.5 73.2,70.4L69,66.2C68.2,65.4 67,65.4 66.2,66.2C65.4,67 65.4,68.2 66.2,69L70.4,73.2C65.5,77.5 59.3,80.2 52.5,80.8L59.9,50.4L59.9,49.6L52.5,19.2C59.3,19.8 65.5,22.5 70.4,26.8L66.2,31C65.4,31.8 65.4,33 66.2,33.8C66.6,34.2 67.1,34.4 67.6,34.4C68.1,34.4 68.6,34.2 69,33.8L73.2,29.6C77.6,34.6 80.4,41 80.9,48L75,48C73.9,48 73,48.9 73,50C73,51.1 73.9,52 75,52ZM33.7,66.3C32.9,65.5 31.7,65.5 30.9,66.3L26.7,70.5C22.3,65.5 19.5,59.1 19,52.1L25,52.1C26.1,52.1 27,51.2 27,50.1C27,49 26.1,48.1 25,48.1L19.1,48.1C19.6,41.1 22.4,34.6 26.8,29.7L31,33.9C31.4,34.3 31.9,34.5 32.4,34.5C32.9,34.5 33.4,34.3 33.8,33.9C34.6,33.1 34.6,31.9 33.8,31.1L29.6,26.9C34.5,22.6 40.7,19.9 47.5,19.3L40.1,49.7L40.1,50.5L47.5,80.9C40.7,80.3 34.5,77.6 29.6,73.3L33.8,69.1C34.5,68.3 34.5,67 33.7,66.3ZM44.5,48L50,25.5L55.5,48L44.5,48ZM55.5,52L50,74.5L44.5,52L55.5,52Z" style="fill-rule:nonzero;"/>
            </g>
        </g>
    </g>
</svg>
