<?xml version="1.0" encoding="UTF-8" standalone="no"?>
<!DOCTYPE svg PUBLIC "-//W3C//DTD SVG 1.1//EN" "http://www.w3.org/Graphics/SVG/1.1/DTD/svg11.dtd">
<svg width="100%" height="100%" viewBox="0 0 74 77" version="1.1" xmlns="http://www.w3.org/2000/svg" xmlns:xlink="http://www.w3.org/1999/xlink" xml:space="preserve" xmlns:serif="http://www.serif.com/" fill="#273006" style="fill-rule:evenodd;clip-rule:evenodd;stroke-linejoin:round;stroke-miterlimit:2;">
    <g transform="matrix(1,0,0,1,-294.961,-224.282)">
        <g id="noun-construction-6488183.svg" transform="matrix(2.29508,0,0,2.29508,331.683,270.184)">
            <g transform="matrix(1,0,0,1,-16,-20)">
                <g>
                    <path d="M26,6L16,6L16,4C16,2.903 15.097,2 14,2L10,2C8.903,2 8,2.903 8,4L8,6L6,6C4.903,6 4,6.903 4,8L4,10C4,11.097 4.903,12 6,12L8,12L8,28L7,28C6.451,28 6,28.451 6,29C6,29.549 6.451,30 7,30L17,30C17.549,30 18,29.549 18,29C18,28.451 17.549,28 17,28L16,28L16,12L22,12L22,14.16C20.532,14.604 19.52,15.967 19.52,17.501C19.52,19.415 21.095,20.991 23.01,20.991C24.925,20.991 26.5,19.415 26.5,17.501C26.5,17.5 26.5,17.5 26.5,17.5C26.5,16.951 26.049,16.5 25.5,16.5C24.951,16.5 24.5,16.951 24.5,17.5C24.5,18.323 23.823,19 23,19C22.177,19 21.5,18.323 21.5,17.5C21.5,16.677 22.177,16 23,16C23.549,16 24,15.549 24,15L24,12L26,12C27.097,12 28,11.097 28,10L28,8C28,6.903 27.097,6 26,6ZM10,4L14,4L14,6L10,6L10,4ZM10.41,17L14,13.41L14,20.59L10.41,17ZM13.59,23L10,26.59L10,19.41L13.59,23ZM10,14.59L10,12L12.59,12L10,14.59ZM11.41,28L14,25.41L14,28L11.41,28ZM6,10L6,8L26,8L26,10L6,10Z" style="fill-rule:nonzero;"/>
                </g>
            </g>
        </g>
    </g>
</svg>
