<?xml version="1.0" encoding="UTF-8" standalone="no"?>
<!DOCTYPE svg PUBLIC "-//W3C//DTD SVG 1.1//EN" "http://www.w3.org/Graphics/SVG/1.1/DTD/svg11.dtd">
<svg width="100%" height="100%" viewBox="0 0 81 86" version="1.1" xmlns="http://www.w3.org/2000/svg" xmlns:xlink="http://www.w3.org/1999/xlink" xml:space="preserve" xmlns:serif="http://www.serif.com/" fill="#273006" style="fill-rule:evenodd;clip-rule:evenodd;stroke-linejoin:round;stroke-miterlimit:2;">
    <g transform="matrix(1,0,0,1,-541.416,-679.925)">
        <g id="noun-cauldron-2385998.svg" transform="matrix(0.805406,0,0,0.805406,581.686,730.263)">
            <g transform="matrix(1,0,0,1,-50,-62.5)">
                <g>
                    <path d="M49.529,54.73C50.545,52.018 50.959,49.937 47.599,45.877C47.198,45.392 46.535,45.207 45.944,45.419C45.35,45.629 44.951,46.187 44.944,46.816C44.906,50.158 44.31,50.72 43.229,51.741C42.406,52.519 41.38,53.487 40.355,55.494C39.939,56.309 39.605,57.308 39.42,58.444C39.338,58.145 39.163,57.871 38.907,57.667C38.382,57.249 37.64,57.232 37.095,57.625C33.397,60.295 31.828,65.267 33.1,70.292C34.504,75.846 38.983,79.767 44.788,80.525C44.853,80.534 44.919,80.538 44.983,80.538L45.002,80.538C45.831,80.538 46.502,79.867 46.502,79.038C46.502,78.422 46.131,77.892 45.6,77.662C44.47,76.983 43.786,76.002 43.565,74.745C43.494,74.342 43.477,73.949 43.496,73.583C44.91,75 46.382,75.714 47.893,75.714C49.831,75.714 51.555,74.477 52.506,72.406C52.571,72.264 52.631,72.122 52.687,71.978C52.722,72.139 52.747,72.299 52.761,72.459C52.953,74.588 51.339,76.454 50.472,77.457C50.348,77.6 50.24,77.726 50.151,77.834C49.779,78.288 49.706,78.917 49.963,79.444C50.22,79.971 50.74,80.308 51.349,80.285C58.6,80.101 62.611,72.91 62.611,68.01C62.611,62.003 58.699,54.953 52.378,54.037C51.688,53.933 51.02,54.326 50.766,54.975C50.512,55.625 50.74,56.364 51.316,56.758C51.835,57.113 52.349,58.954 51.958,60.382C51.682,61.388 51.192,61.42 51.009,61.432C50.943,61.436 50.873,61.438 50.803,61.438C50.185,61.438 49.707,61.264 49.385,60.921C48.874,60.378 48.653,59.333 48.741,57.9C48.821,56.621 49.182,55.66 49.529,54.73ZM39.292,59.582C39.201,60.971 39.334,62.517 39.792,64.149C39.641,63.997 39.504,63.831 39.386,63.653C38.685,62.599 38.653,61.193 39.292,59.582ZM50.803,64.439C50.941,64.439 51.075,64.435 51.204,64.426C52.987,64.309 54.316,63.125 54.85,61.176C55.088,60.31 55.151,59.297 55.037,58.302C57.862,60.361 59.612,64.408 59.612,68.01C59.612,70.436 58.062,74.324 54.972,76.203C55.518,75.057 55.887,73.704 55.749,72.19C55.543,69.909 54.215,67.769 51.803,65.828C51.527,65.606 51.195,65.497 50.863,65.497C50.469,65.497 50.078,65.651 49.785,65.954C49.246,66.511 49.221,67.387 49.725,67.975C50.288,68.631 50.313,69.998 49.781,71.155C49.613,71.521 48.98,72.715 47.894,72.715C46.84,72.715 45.495,71.617 44.203,69.702C43.941,69.314 43.513,69.07 43.045,69.044C42.577,69.02 42.124,69.211 41.819,69.567C40.908,70.633 40.201,72.933 40.611,75.266C40.656,75.522 40.717,75.795 40.8,76.079C38.43,74.678 36.732,72.416 36.009,69.558C35.495,67.527 35.569,65.522 36.155,63.798C36.328,64.333 36.572,64.84 36.886,65.314C38.088,67.123 40.219,68.247 42.471,68.247C42.998,68.245 43.487,67.966 43.755,67.512C44.025,67.058 44.035,66.496 43.783,66.033C41.718,62.221 42.037,58.796 43.026,56.861C43.816,55.315 44.564,54.608 45.289,53.924C46.116,53.142 46.778,52.437 47.234,51.359C47.299,52.127 47.046,52.803 46.718,53.679C46.333,54.708 45.854,55.989 45.745,57.716C45.6,60.029 46.089,61.8 47.196,62.978C48.098,63.934 49.344,64.439 50.803,64.439Z" style="fill-rule:nonzero;"/>
                    <path d="M64.686,86.238C65.1,85.472 65.192,84.592 64.943,83.759L64.573,82.515C64.166,81.144 62.883,80.186 61.453,80.186C61.139,80.186 60.826,80.232 60.523,80.322L47.695,84.141L34.867,80.322C34.564,80.232 34.252,80.186 33.937,80.186C32.507,80.186 31.224,81.144 30.817,82.514L30.446,83.759C29.934,85.48 30.918,87.296 32.638,87.808L34.007,88.216L32.638,88.624C30.917,89.136 29.934,90.953 30.446,92.675L30.817,93.917C31.224,95.288 32.507,96.245 33.937,96.246C34.251,96.246 34.564,96.2 34.867,96.11L47.695,92.291L60.523,96.11C60.826,96.2 61.138,96.246 61.453,96.246C62.883,96.246 64.166,95.288 64.573,93.918L64.943,92.675C65.192,91.841 65.1,90.96 64.686,90.195C64.272,89.43 63.584,88.872 62.75,88.624L61.381,88.216L62.75,87.808C63.584,87.561 64.271,87.003 64.686,86.238ZM34.011,93.235C33.89,93.269 33.74,93.222 33.692,93.062L33.32,91.82C33.28,91.684 33.357,91.54 33.493,91.5L39.264,89.782L42.438,90.727L34.011,93.235ZM62.048,91.624C62.07,91.666 62.093,91.735 62.068,91.82L61.698,93.064C61.66,93.189 61.545,93.247 61.453,93.247L33.494,84.935C33.358,84.894 33.281,84.751 33.321,84.617L33.692,83.372C33.727,83.256 33.827,83.199 33.971,83.199C33.984,83.199 33.997,83.199 34.011,83.2L61.895,91.5C61.979,91.525 62.024,91.581 62.048,91.624ZM62.048,84.81C62.025,84.852 61.98,84.909 61.895,84.934L56.125,86.652L52.958,85.709L61.452,83.187C61.544,83.187 61.659,83.245 61.697,83.371L62.067,84.616C62.093,84.7 62.07,84.768 62.048,84.81Z" style="fill-rule:nonzero;"/>
                    <path d="M95,11.333L86.141,11.333L85.37,4.823C85.272,4.001 84.538,3.414 83.704,3.51C82.882,3.608 82.294,4.354 82.392,5.177L83.121,11.334L61.454,11.334C59.159,8.587 55.712,6.834 51.86,6.834L44.744,6.834C40.892,6.834 37.445,8.587 35.15,11.334L16.427,11.334L17.156,5.177C17.254,4.354 16.666,3.608 15.844,3.51C15.009,3.415 14.275,4.001 14.178,4.823L13.407,11.333L5,11.333C4.172,11.333 3.5,12.004 3.5,12.833C3.5,13.662 4.172,14.333 5,14.333L13.051,14.333L3.511,94.823C3.413,95.646 4.001,96.392 4.823,96.49C4.884,96.497 4.943,96.5 5.002,96.5C5.751,96.5 6.399,95.939 6.489,95.177L16.071,14.334L33.295,14.334C32.816,15.428 32.491,16.604 32.343,17.834L30.594,17.834C29.766,17.834 29.094,18.505 29.094,19.334C29.094,20.163 29.766,20.834 30.594,20.834L32.244,20.834L32.244,31.932C32.244,37.76 36.985,42.501 42.812,42.501L53.791,42.501C59.618,42.501 64.359,37.76 64.359,31.932L64.359,20.833L66.009,20.833C66.837,20.833 67.509,20.162 67.509,19.333C67.509,18.504 66.837,17.833 66.009,17.833L64.26,17.833C64.112,16.603 63.787,15.427 63.308,14.333L83.474,14.333L93.056,95.176C93.146,95.939 93.794,96.499 94.543,96.499C94.602,96.499 94.661,96.496 94.722,96.489C95.544,96.391 96.132,95.645 96.034,94.822L86.494,14.332L95,14.332C95.828,14.332 96.5,13.661 96.5,12.832C96.5,12.003 95.828,11.333 95,11.333ZM44.744,9.833L51.86,9.833C53.739,9.833 55.488,10.388 56.964,11.333L39.641,11.333C41.116,10.389 42.865,9.833 44.744,9.833ZM61.36,31.931C61.36,36.104 57.964,39.5 53.792,39.5L42.812,39.5C38.639,39.5 35.244,36.104 35.244,31.931L35.244,20.833L61.36,20.833L61.36,31.931ZM61.242,17.833L35.362,17.833C35.564,16.564 36.026,15.383 36.679,14.333L59.924,14.333C60.578,15.383 61.04,16.564 61.242,17.833Z" style="fill-rule:nonzero;"/>
                </g>
            </g>
        </g>
    </g>
</svg>
