<?xml version="1.0" encoding="UTF-8" standalone="no"?>
<!DOCTYPE svg PUBLIC "-//W3C//DTD SVG 1.1//EN" "http://www.w3.org/Graphics/SVG/1.1/DTD/svg11.dtd">
<svg width="100%" height="100%" viewBox="0 0 76 78" version="1.1" xmlns="http://www.w3.org/2000/svg" xmlns:xlink="http://www.w3.org/1999/xlink" xml:space="preserve" xmlns:serif="http://www.serif.com/" style="fill-rule:evenodd;clip-rule:evenodd;stroke-linejoin:round;stroke-miterlimit:2;">
    <g transform="matrix(1,0,0,1,-501.692,-550.997)">
        <g id="noun-campfire-4075955.svg" transform="matrix(0.0190812,0,0,0.0190812,539.554,598.324)">
            <g transform="matrix(1,0,0,1,-1984.25,-2480.31)">
                <g>
                    <path d="M2919.5,3205.7L2768.2,3133.6C2781,3127.5 2790,3123.1 2797.4,3119.6C2823.6,3107 2830.6,3103.6 2919.2,3062.2C2919.2,3062.2 2919.3,3062.2 2919.3,3062.1C2919.4,3062.1 2919.4,3062.1 2919.5,3062C2985.3,3030.6 3030.4,2968.1 3046.5,2885.8C3061.5,2808.7 3049,2722.6 3011.2,2643.2C2930.9,2474.6 2759.1,2388.2 2628.3,2450.5L1981.2,2758.7L1334.1,2450.5C1203.3,2388.2 1031.5,2474.7 951.2,2643.2C913.4,2722.6 900.9,2808.7 915.9,2885.8C931.9,2968.1 977,3030.6 1042.9,3062L1193.7,3133.8L1042.9,3205.6C977.1,3237 932,3299.5 915.9,3381.8C900.9,3458.9 913.4,3545 951.2,3624.4C1012,3751.9 1128.8,3837.7 1242,3837.7C1274.5,3837.7 1305.5,3830.8 1334.1,3817.2L1334.3,3817.2C1511.3,3732.1 1579.5,3700 1651.7,3665.9C1720.3,3633.6 1791.2,3600.2 1960.9,3518.8C1967.1,3515.8 1972.2,3511.7 1976.4,3506.8L2628.3,3817.3C2656.9,3830.9 2687.9,3837.8 2720.4,3837.8C2833.6,3837.8 2950.5,3752.1 3011.2,3624.5C3049,3545.1 3061.5,3459 3046.5,3381.9C3030.5,3299.7 2985.4,3237.1 2919.5,3205.7ZM2668.7,2535.4C2691.8,2524.4 2717.6,2521.8 2744.1,2526.3L2628.3,2581.5C2604.9,2592.7 2594.9,2620.7 2606.1,2644.1C2614.2,2661 2631,2670.9 2648.6,2670.9C2655.4,2670.9 2662.3,2669.4 2668.8,2666.3L2842.4,2583.6C2844.7,2582.5 2846.7,2581.1 2848.7,2579.8C2853.3,2583.8 2857.8,2588.1 2862.2,2592.5L2490.9,2769.3C2467.5,2780.5 2457.5,2808.5 2468.7,2831.9C2476.8,2848.8 2493.6,2858.7 2511.2,2858.7C2518,2858.7 2524.9,2857.2 2531.4,2854.1L2919.2,2669.4C2921.7,2674.1 2924.1,2678.8 2926.4,2683.6C2955.6,2744.9 2965.5,2810.3 2954.3,2867.8C2944.1,2920.1 2917.4,2958.9 2879.2,2977.1C2790.5,3018.6 2783.3,3022.1 2756.8,3034.8C2740.6,3042.6 2717.2,3053.9 2662.9,3079.7C2661.7,3080.3 2660.7,3081.1 2659.6,3081.7L2090.6,2810.7L2668.7,2535.4ZM1368.8,3623.1C1358.6,3675.4 1331.9,3714.2 1293.7,3732.4C1277.8,3740 1260.5,3743.8 1242,3743.8C1164.3,3743.8 1081.5,3679.6 1036,3584.1C1006.8,3522.8 996.9,3457.4 1008.1,3399.9C1018.3,3347.6 1045,3308.8 1083.2,3290.6C1099.1,3283 1116.5,3279.2 1134.9,3279.2C1212.6,3279.2 1295.4,3343.4 1340.9,3438.9C1370.1,3500.2 1380,3565.6 1368.8,3623.1ZM1611.6,3580.9C1567.5,3601.7 1524.9,3621.8 1458.3,3653.5C1459.3,3649.4 1460.2,3645.3 1461,3641.1C1476,3564 1463.5,3477.9 1425.7,3398.5C1385.2,3313.5 1319.8,3247.3 1247.2,3212.5L1302.8,3186L1872,3457.1C1736.7,3522 1673.2,3551.9 1611.6,3580.9ZM2518.8,3441.7L2001.4,3195.3C1978,3184.1 1949.9,3194.1 1938.8,3217.5C1927.6,3240.9 1937.6,3269 1961,3280.1L2497.3,3535.5C2493.5,3571.5 2494.7,3607.1 2501.3,3641C2502.2,3645.4 2503.1,3649.7 2504.2,3654L1083.3,2977.2C1045,2959 1018.4,2920.1 1008.2,2867.9C997,2810.4 1006.9,2745 1036.1,2683.7C1038.5,2678.7 1041,2673.9 1043.6,2669.1L1676.5,2984C1683.2,2987.3 1690.4,2988.9 1697.4,2988.9C1714.7,2988.9 1731.3,2979.3 1739.5,2962.8C1751.1,2939.6 1741.6,2911.4 1718.4,2899.8L1100.5,2592.3C1108.6,2584.3 1117,2576.9 1125.6,2570.1C1129,2573.4 1132.7,2576.3 1137.2,2578.5L1482.8,2750.5C1489.5,2753.8 1496.7,2755.4 1503.7,2755.4C1521,2755.4 1537.6,2745.8 1545.8,2729.3C1557.4,2706.1 1547.9,2677.9 1524.7,2666.3L1239,2524.1C1258.2,2523.6 1276.8,2527 1293.9,2535.2L2715.3,3212.3C2642.7,3247.2 2577.3,3313.4 2536.8,3398.3C2529.8,3412.7 2523.9,3427.2 2518.8,3441.7ZM2926.3,3584.1C2880.8,3679.6 2798,3743.8 2720.3,3743.8C2701.9,3743.8 2684.5,3740 2668.6,3732.4C2630.3,3714.2 2603.7,3675.3 2593.5,3623.1C2582.3,3565.6 2592.2,3500.2 2621.4,3438.9C2666.9,3343.4 2749.7,3279.2 2827.4,3279.2C2845.8,3279.2 2863.2,3283 2879.1,3290.6C2917.4,3308.8 2944,3347.7 2954.2,3399.9C2965.5,3457.4 2955.6,3522.8 2926.3,3584.1Z" style="fill-rule:nonzero;"/>
                    <path d="M2865.7,3318.7C2854.1,3313.2 2841.2,3310.3 2827.4,3310.3C2762.5,3310.3 2689.4,3368.7 2649.6,3452.2C2626.2,3501.3 2616.2,3554.1 2621.6,3600.9C2627.3,3651 2649.4,3688.6 2682.1,3704.2C2693.7,3709.7 2706.6,3712.6 2720.4,3712.6C2785.3,3712.6 2858.4,3654.2 2898.2,3570.7C2953.1,3455.4 2925.8,3347.3 2865.7,3318.7ZM2813.4,3530.3C2785.4,3589.1 2742,3616.1 2723,3618.5C2715.1,3605.8 2703.4,3557.9 2734.4,3492.7C2762.3,3434.2 2805.4,3407.2 2824.8,3404.6C2832.7,3417.4 2844.4,3465.2 2813.4,3530.3Z" style="fill-rule:nonzero;"/>
                    <path d="M1178.3,2202.5C1190,2218.2 1389.2,2432.8 1491.2,2432.8C1506.4,2432.8 1520.1,2428.9 1531.7,2421.1C1575.8,2391.8 1656.4,2248.3 1667.9,2189.6C1698.6,2033 1632,1866.6 1576.1,1754.5C1690,1809.2 1810.2,1933.9 1837.9,1983.7C1848.1,2002.1 1869.3,2011.4 1889.8,2006.6C1910.3,2001.8 1925,1983.9 1925.9,1962.9C1935,1756.5 1964.4,1515.4 2100.4,1394.1C2084.4,1574.1 2070.1,1927 2147.7,2027C2171.7,2057.9 2199.6,2064.4 2218.9,2064.4C2223,2064 2227.6,2064.1 2231.9,2063.4C2273.5,2057.2 2284.7,2016.2 2299,1964.4C2309.4,1926.8 2322.2,1880 2345.4,1835C2355.7,1814.9 2376,1783.9 2403.7,1755.3C2387.7,2120.1 2427.1,2199.7 2536.6,2365.3C2550.3,2386 2572.2,2397.8 2596.7,2397.8C2632.6,2397.8 2690.5,2376.3 2820.6,2209.1L2823.8,2205C2902.4,2106.1 2963.5,1998.7 3005.4,1885.8C3090.2,1657.3 3073.8,1399.9 2956.7,1120.7C2942.8,1087.5 2877.7,955.6 2799.3,826.4C2660.8,597.8 2596.3,567 2551.5,567C2540.6,567 2530.1,569.2 2520.4,573.6C2501,582.3 2489.8,603.1 2493.3,624.1C2510.7,729.7 2502.6,818 2468.4,891.4C2415.6,728.4 2320.5,584.6 2212.2,430.4C2194.3,404.9 2109,326.2 2040.6,268.7C1876.3,130.6 1836.5,130.6 1817.4,130.6C1799.8,130.6 1783.9,137.3 1772.7,149.5C1764.5,158.4 1755.2,174.3 1757.3,199.3C1778.7,447.6 1775.3,891.3 1538.8,1204.4C1513.9,1074.2 1471.5,910.4 1405.8,822.1C1394.3,806.7 1374.6,799.8 1356.1,804.7C1337.5,809.6 1323.8,825.4 1321.5,844.4C1304.4,984.3 1245.6,1112.4 1183.3,1248.1C1105.2,1418.2 1024.5,1594 1032.9,1795.1C1039,1942.2 1089.3,2083.1 1178.3,2202.5ZM1268.7,1287.4C1312.4,1192.2 1357.1,1094.8 1386.5,992.1C1429.1,1110.8 1454.6,1262.6 1463,1318.5C1465.7,1336.2 1478.2,1350.9 1495.3,1356.3C1512.4,1361.7 1531.1,1356.9 1543.5,1343.9C1848.7,1024.3 1873.5,538.3 1855,244.8C1941.9,301.2 2113.5,455 2135.3,484.4C2259.7,661.5 2365.6,823.6 2403.2,1013.3C2406.7,1030.8 2419.7,1044.8 2436.9,1049.5C2454.1,1054.2 2472.4,1048.8 2484.3,1035.5C2564.8,945.6 2601.6,835.1 2595.7,699.6C2623.7,730.6 2665.7,786.1 2725.4,885.5C2797.5,1005.6 2858.1,1128.3 2870.1,1156.9C2977.7,1413.3 2993.6,1647.5 2917.4,1852.9C2878.9,1956.5 2822.7,2055.3 2750.3,2146.4L2746.5,2151.3C2666.8,2253.8 2623.5,2287.7 2605.4,2298.7C2508.9,2152.2 2476.8,2089 2502.8,1661.4C2503.8,1644.8 2495.9,1628.8 2482.1,1619.5C2468.3,1610.2 2450.5,1609 2435.5,1616.2C2353.7,1655.7 2290.8,1735.5 2261.9,1791.9C2234.4,1845.5 2219.4,1899.7 2208.5,1939.3C2208.5,1939.4 2208.4,1939.6 2208.4,1939.7C2195.8,1901.4 2180.5,1819.8 2181.7,1649.8C2182.8,1493.1 2198.1,1336.7 2204.3,1312.7C2208.8,1295.2 2202.9,1276.8 2189.1,1265.1C2175.4,1253.5 2156.2,1250.7 2139.7,1258C1926.1,1352.7 1861.7,1601.2 1840,1838.5C1751.1,1747.1 1609.4,1638 1486.1,1633.9C1469.2,1633.4 1453.6,1641.8 1444.7,1655.9C1435.8,1670.1 1435.2,1688 1443,1702.8C1446.7,1709.8 1450.9,1717.5 1455.4,1726C1504.8,1817.7 1607.7,2008.6 1575.8,2171.3C1568.1,2210.5 1509.3,2309.9 1485,2337.4C1434,2322.5 1283.3,2186 1253.7,2146.2C1176,2042 1132.1,1919.2 1126.8,1791.1C1119.3,1612.8 1191.9,1454.7 1268.7,1287.4Z" style="fill-rule:nonzero;"/>
                    <path d="M1134.9,3310.4C1121.1,3310.4 1108.3,3313.2 1096.6,3318.8C1057.3,3337.5 1043.4,3381.4 1038.6,3406C1028.8,3456.2 1038.1,3516.3 1064.1,3570.8C1103.9,3654.4 1177,3712.7 1241.9,3712.7C1255.6,3712.7 1268.5,3709.9 1280.2,3704.3C1319.5,3685.6 1333.4,3641.7 1338.2,3617.1C1348,3566.9 1338.7,3506.8 1312.7,3452.3C1273,3368.7 1199.9,3310.4 1134.9,3310.4ZM1246,3599.1C1244.3,3607.9 1241.5,3614.8 1239.4,3618.4C1220.5,3616 1177,3589 1149,3530.2C1131.8,3494 1125,3454.2 1130.9,3423.8C1132.6,3415 1135.4,3408.1 1137.5,3404.5C1156.4,3406.9 1199.9,3433.9 1227.9,3492.7C1245.2,3528.9 1251.9,3568.7 1246,3599.1Z" style="fill-rule:nonzero;"/>
                </g>
                <g transform="matrix(1,0,0,1,0,3983.5)">
                    <text x="0px" y="0px" style="font-family:'HelveticaNeue-Bold', 'Helvetica Neue';font-weight:700;font-size:5px;">Created by Alvaro Cabrera</text>
                </g>
                <g transform="matrix(1,0,0,1,0,3988.5)">
                    <text x="0px" y="0px" style="font-family:'HelveticaNeue-Bold', 'Helvetica Neue';font-weight:700;font-size:5px;">from the Noun Project</text>
                </g>
            </g>
        </g>
    </g>
</svg>
