<?xml version="1.0" encoding="UTF-8" standalone="no"?>
<!DOCTYPE svg PUBLIC "-//W3C//DTD SVG 1.1//EN" "http://www.w3.org/Graphics/SVG/1.1/DTD/svg11.dtd">
<svg width="100%" height="100%" viewBox="0 0 81 80" version="1.1" xmlns="http://www.w3.org/2000/svg" xmlns:xlink="http://www.w3.org/1999/xlink" xml:space="preserve" xmlns:serif="http://www.serif.com/" style="fill-rule:evenodd;clip-rule:evenodd;stroke-linejoin:round;stroke-miterlimit:2;">
    <g transform="matrix(1,0,0,1,-418.666,-680.836)">
        <g id="noun-canned-food-5212609.svg" transform="matrix(0.805406,0,0,0.805406,458.937,731.174)">
            <g transform="matrix(1,0,0,1,-50,-62.5)">
                <g>
                    <g>
                        <path d="M43,50C43,41.2 35.8,34 27,34C18.2,34 11,41.2 11,50C11,58.8 18.2,66 27,66C35.8,66 43,58.8 43,50ZM27,64C19.3,64 13,57.7 13,50C13,42.3 19.3,36 27,36C34.7,36 41,42.3 41,50C41,57.7 34.7,64 27,64Z" style="fill-rule:nonzero;"/>
                        <path d="M95,70L91.8,70C91.3,68.9 90,68.1 88.6,67.3C88.3,67.1 88,66.9 87.7,66.8C87.3,66.6 86.9,66.2 86.5,65.8C85.6,65 84.7,64.1 83.3,63.7C82.3,63.4 81.3,63.5 80.4,63.6C79.6,63.7 78.8,63.7 78.1,63.6C77.5,63.5 76.9,63.2 76.3,62.8C75.4,62.3 74.4,61.8 73.3,61.7C72.3,61.6 71.3,61.8 70.4,62.1C69.6,62.3 68.9,62.5 68.2,62.5C67.6,62.5 66.9,62.2 66.2,61.9C65.3,61.5 64.3,61.2 63.2,61.2C62.1,61.2 61.1,61.6 60.2,61.9C59.5,62.2 58.8,62.4 58.2,62.5C57.5,62.5 56.8,62.3 56,62.1C55.1,61.9 54.1,61.6 53.1,61.7C52,61.8 51.1,62.3 50.2,62.8L50.2,23C50.2,20.8 48.4,19 46.2,19L8,19C5.8,19 4,20.8 4,23L4,77C4,79.2 5.8,81 8,81L84,81C84.3,81 84.5,80.9 84.7,80.7L89.4,76L91,76C93.8,76 96,73.8 96,71C96,70.4 95.6,70 95,70ZM53.1,63.6C53.7,63.5 54.5,63.7 55.3,63.9C56.2,64.1 57.1,64.4 58.1,64.3C59,64.2 59.9,63.9 60.7,63.6C61.5,63.3 62.3,63 63,63C63.7,63 64.5,63.3 65.3,63.6C66.1,63.9 67,64.3 67.9,64.3C68.9,64.4 69.8,64.1 70.7,63.9C71.5,63.7 72.3,63.5 72.9,63.6C73.7,63.7 74.4,64.1 75.2,64.5C76,64.9 76.7,65.3 77.6,65.5C78.6,65.7 79.6,65.6 80.5,65.5C81.3,65.4 82.1,65.4 82.6,65.5C83.5,65.8 84.3,66.5 85,67.2C85.5,67.7 86,68.1 86.6,68.5C86.9,68.7 87.3,68.9 87.6,69.1C88.2,69.4 88.7,69.7 89.2,70L36.9,70C37.3,69.7 37.9,69.4 38.5,69.1C38.8,68.9 39.2,68.7 39.5,68.5C40.1,68.2 40.6,67.7 41.1,67.2C41.8,66.5 42.6,65.8 43.5,65.5C44.1,65.3 44.8,65.4 45.6,65.5C46.5,65.6 47.5,65.7 48.5,65.5C49.4,65.3 50.1,64.9 50.9,64.5C51.6,64.1 52.4,63.7 53.1,63.6ZM31,70C30.4,70 30,70.4 30,71C30,72.1 30.4,73.2 31,74L6,74L6,26L48,26L48,63.5C47.3,63.6 46.5,63.6 45.7,63.5C44.7,63.4 43.7,63.3 42.8,63.6C41.4,64 40.5,64.9 39.6,65.7C39.2,66.1 38.7,66.5 38.4,66.7C38.1,66.9 37.8,67.1 37.5,67.2C36.1,68 34.8,68.7 34.3,69.9L31,69.9L31,70ZM8,21L46,21C47.1,21 48,21.9 48,23L48,24L6,24L6,23C6,21.9 6.9,21 8,21ZM6,77L6,76L36.6,76L39.6,79L8,79C6.9,79 6,78.1 6,77ZM83.6,79L42.4,79L39.4,76L86.6,76L83.6,79ZM91,74L35,74C33.7,74 32.6,73.2 32.2,72L93.9,72C93.4,73.2 92.3,74 91,74Z" style="fill-rule:nonzero;"/>
                    </g>
                </g>
            </g>
        </g>
    </g>
</svg>
