<?xml version="1.0" encoding="UTF-8" standalone="no"?>
<!DOCTYPE svg PUBLIC "-//W3C//DTD SVG 1.1//EN" "http://www.w3.org/Graphics/SVG/1.1/DTD/svg11.dtd">
<svg width="100%" height="100%" viewBox="0 0 162 164" version="1.1" xmlns="http://www.w3.org/2000/svg" xmlns:xlink="http://www.w3.org/1999/xlink" xml:space="preserve" xmlns:serif="http://www.serif.com/"  fill="#273006" style="fill-rule:evenodd;clip-rule:evenodd;stroke-linejoin:round;stroke-miterlimit:2;">
    <g transform="matrix(1,0,0,1,-495.935,-602.858)">
        <g id="noun-camping-stove-5457490.svg" transform="matrix(0.629223,0,0,0.629223,576.476,703.534)">
            <g transform="matrix(1,0,0,1,-128,-160)">
                <path d="M183.744,110.367L180.994,113.117L180.994,127.715L170.272,127.715L170.272,102.395L207.507,67.08L205.615,62.335L171.151,62.335L171.151,67.835L198.719,67.835L145.991,117.844C144.336,117.137 142.554,116.774 140.755,116.776L140.551,116.776L140.551,107.52L137.801,104.77L120.078,104.77L117.328,107.52L117.328,116.775L117.124,116.775C115.324,116.773 113.543,117.137 111.888,117.843L59.16,67.834L86.727,67.834L86.727,62.334L52.264,62.334L50.372,67.08L87.607,102.395L87.607,143.645C73.39,150.986 64.42,165.699 64.405,181.699L64.405,234.168L67.155,236.918L190.724,236.918L193.474,234.168L193.474,181.699C193.459,165.699 184.489,150.986 170.272,143.645L170.272,133.215L180.994,133.215L180.994,147.813L183.744,150.563L200.337,150.563L203.087,147.813L203.087,113.117L200.337,110.367L183.744,110.367ZM164.772,107.611L164.772,127.715L153.911,127.715C153.449,125.232 152.292,122.929 150.574,121.077L164.772,107.611ZM164.772,133.215L164.772,141.268C161.339,140.065 157.765,139.308 154.139,139.015L154.139,133.215L164.772,133.215ZM122.828,110.27L135.051,110.27L135.051,116.775L122.828,116.775L122.828,110.27ZM109.24,130.16C109.245,125.837 112.801,122.281 117.124,122.276L140.755,122.276C145.078,122.281 148.634,125.837 148.639,130.16L148.639,138.86L109.24,138.86L109.24,130.16ZM93.107,107.611L107.305,121.077C105.012,123.545 103.738,126.792 103.74,130.16L103.74,139.016C100.114,139.309 96.54,140.066 93.107,141.268L93.107,107.611ZM187.974,231.418L69.905,231.418L69.905,214.202L187.975,214.202L187.974,231.418ZM187.974,181.699L187.974,208.702L69.905,208.702L69.905,181.699C69.928,161.224 86.769,144.383 107.243,144.36L150.635,144.36C171.11,144.383 187.951,161.224 187.974,181.699L187.974,181.699ZM197.587,145.063L186.494,145.063L186.494,115.867L197.587,115.867L197.587,145.063Z" style="fill-rule:nonzero;"/>
                <path d="M127.364,102.458L130.515,102.458C143.822,93.156 151.766,77.193 151.766,59.757C151.766,42.321 143.822,26.358 130.515,17.056L127.364,17.056C114.057,26.358 106.112,42.321 106.112,59.757C106.112,77.193 114.057,93.156 127.364,102.458ZM111.612,59.757C111.612,44.823 118.055,31.131 128.939,22.722C139.824,31.131 146.266,44.823 146.266,59.757C146.273,64.699 145.552,69.615 144.125,74.346C143.897,63.486 138.855,53.589 130.515,47.759L127.363,47.759C119.023,53.589 113.981,63.487 113.754,74.347C112.327,69.615 111.605,64.699 111.612,59.757L111.612,59.757ZM128.939,53.467C135.227,58.876 138.788,66.815 138.646,75.109C138.788,83.402 135.227,91.341 128.939,96.751C122.652,91.341 119.091,83.402 119.233,75.108C119.091,66.815 122.652,58.876 128.939,53.467Z" style="fill-rule:nonzero;"/>
            </g>
        </g>
    </g>
</svg>
