<?xml version="1.0" encoding="UTF-8" standalone="no"?>
<!DOCTYPE svg PUBLIC "-//W3C//DTD SVG 1.1//EN" "http://www.w3.org/Graphics/SVG/1.1/DTD/svg11.dtd">
<svg width="100%" height="100%" viewBox="0 0 292 300" version="1.1" xmlns="http://www.w3.org/2000/svg" xmlns:xlink="http://www.w3.org/1999/xlink" xml:space="preserve" xmlns:serif="http://www.serif.com/" style="fill-rule:evenodd;clip-rule:evenodd;stroke-linejoin:round;stroke-miterlimit:2;">
    <g transform="matrix(1,0,0,1,-149.255,-302.866)">
        <g id="noun-camping-cooking-gas-3094143.svg" transform="matrix(2.95345,0,0,2.95345,296.927,487.456)">
            <g transform="matrix(1,0,0,1,-50,-62.5)">
                <path d="M64.76,89.1L64.76,75.59C64.731,70.729 61.22,66.534 56.44,65.65L56.44,61.9C56.443,61.669 56.361,61.445 56.21,61.27L58.83,56.93C58.93,56.783 58.982,56.608 58.98,56.43L58.98,52.58C58.98,52.059 58.551,51.63 58.03,51.63C57.509,51.63 57.08,52.059 57.08,52.58L57.08,56.17L54.19,61L51.19,61L51.28,60.9C52.018,60.162 52.462,59.181 52.53,58.14L52.53,55.24C52.531,54.713 52.116,54.272 51.59,54.24C51.464,54.23 51.336,54.23 51.21,54.24L51.21,50.69C51.214,50.341 51.02,50.019 50.71,49.86L55.81,49.86C55.813,49.86 55.817,49.86 55.82,49.86C60.134,49.86 63.685,46.314 63.69,42L63.69,22.79C64.603,22.753 65.335,21.994 65.34,21.08L65.34,19.91C65.34,18.966 64.564,18.19 63.62,18.19L32.51,18.19C31.566,18.19 30.79,18.966 30.79,19.91L30.79,21.08C30.795,22.02 31.57,22.79 32.51,22.79L32.74,22.79L32.74,42C32.745,46.314 36.296,49.86 40.61,49.86L49.26,49.86C47.661,50.227 46.379,51.428 45.91,53C45.537,52.829 45.131,52.74 44.72,52.74C44.19,52.767 43.769,53.21 43.77,53.74L43.77,58C43.804,59.137 44.286,60.216 45.11,61L42.11,61L39.23,56.22L39.23,52.58C39.263,52.479 39.28,52.374 39.28,52.268C39.28,51.719 38.829,51.268 38.28,51.268C37.731,51.268 37.28,51.719 37.28,52.268C37.28,52.374 37.297,52.479 37.33,52.58L37.33,56.43C37.334,56.603 37.382,56.772 37.47,56.92L40.09,61.27C39.94,61.446 39.855,61.669 39.85,61.9L39.85,65.65C35.074,66.538 31.568,70.732 31.54,75.59L31.54,89.1C30.656,89.258 30.005,90.032 30,90.93L30,92C30,93.02 30.84,93.86 31.86,93.86L64.46,93.86C65.477,93.855 66.31,93.017 66.31,92L66.31,90.93C66.321,90.023 65.656,89.239 64.76,89.1ZM64.42,90.93L64.42,91.93L31.91,92L31.91,91L64.42,90.93ZM32.69,20.93L32.69,20.11L63.44,20.11L63.44,20.93L32.69,20.93ZM40.61,48C37.318,48 34.61,45.292 34.61,42L34.61,22.8L61.79,22.8L61.79,42C61.79,45.292 59.082,48 55.79,48L40.61,48ZM45.67,55.34C45.713,55.459 45.737,55.584 45.74,55.71C45.737,55.742 45.735,55.775 45.735,55.807C45.735,56.328 46.164,56.757 46.685,56.757C47.206,56.757 47.635,56.328 47.635,55.807C47.635,55.775 47.633,55.742 47.63,55.71L47.63,54.27C47.641,53.182 48.316,52.205 49.33,51.81L49.33,56.51C49.329,57.037 49.744,57.478 50.27,57.51C50.401,57.508 50.53,57.481 50.65,57.43L50.65,58C50.611,58.589 50.358,59.144 49.94,59.56C49.706,59.798 49.423,59.983 49.11,60.1L49.11,59.96C48.975,59.551 48.591,59.272 48.16,59.272C47.729,59.272 47.345,59.551 47.21,59.96L47.21,60.1C46.303,59.761 45.69,58.898 45.67,57.93L45.67,55.34ZM41.77,62.87L54.54,62.87L54.54,65.41L41.77,65.41L41.77,62.87ZM33.46,75.59C33.465,71.097 37.157,67.401 41.65,67.39L54.65,67.39C59.146,67.395 62.845,71.094 62.85,75.59L62.85,89.07L33.46,89.07L33.46,75.59Z" style="fill-rule:nonzero;"/>
                <path d="M57.64,83.33L53.46,74.78C53.292,74.464 52.967,74.262 52.61,74.25C52.249,74.258 51.92,74.461 51.75,74.78L50.64,77.07L48.57,70.87C48.44,70.485 48.076,70.224 47.67,70.224C47.264,70.224 46.9,70.485 46.77,70.87L44.72,77L44.51,76.68C44.321,76.428 44.025,76.28 43.71,76.28C43.395,76.28 43.099,76.428 42.91,76.68L38.73,83.19C38.633,83.342 38.581,83.519 38.581,83.7C38.581,84.221 39.009,84.649 39.53,84.65L56.79,84.65C56.793,84.65 56.796,84.65 56.799,84.65C57.315,84.65 57.739,84.226 57.739,83.71C57.739,83.564 57.705,83.42 57.64,83.29L57.64,83.33ZM41.27,82.79L43.71,79L44.2,79.76C44.393,80.069 44.749,80.237 45.11,80.19C45.466,80.133 45.765,79.888 45.89,79.55L47.67,74.19L49.57,79.89C49.702,80.249 50.029,80.502 50.41,80.54C50.789,80.55 51.142,80.344 51.32,80.01L52.61,77.38L55.27,82.81L41.27,82.79Z" style="fill-rule:nonzero;"/>
                <path d="M48.24,14.48C48.249,15.141 48.612,15.748 49.19,16.07C49.434,16.259 49.577,16.551 49.577,16.86C49.577,17.355 49.21,17.779 48.72,17.85C48.554,17.852 48.391,17.807 48.25,17.72C47.069,17.052 46.336,15.796 46.336,14.438C46.336,13.139 47.008,11.928 48.11,11.24C48.648,10.892 48.974,10.294 48.974,9.653C48.974,8.967 48.6,8.333 48,8C47.78,7.882 47.613,7.685 47.53,7.45C47.45,7.212 47.472,6.951 47.59,6.73C47.842,6.288 48.394,6.106 48.86,6.31C50.132,6.949 50.938,8.256 50.938,9.679C50.938,10.98 50.265,12.193 49.16,12.88C48.592,13.212 48.242,13.822 48.24,14.48Z" style="fill-rule:nonzero;"/>
                <path d="M55.21,14.82C55.225,15.349 55.529,15.829 56,16.07C56.432,16.347 56.585,16.914 56.35,17.37C56.175,17.658 55.866,17.838 55.53,17.85C55.364,17.851 55.202,17.806 55.06,17.72C54.012,17.118 53.363,15.998 53.363,14.789C53.363,13.63 53.959,12.548 54.94,11.93C55.368,11.659 55.629,11.186 55.629,10.679C55.629,10.123 55.316,9.612 54.82,9.36C54.382,9.104 54.204,8.554 54.41,8.09C54.568,7.77 54.896,7.567 55.252,7.567C55.401,7.567 55.548,7.602 55.68,7.67C56.811,8.246 57.526,9.413 57.526,10.682C57.526,11.841 56.93,12.921 55.95,13.54C55.49,13.801 55.206,14.291 55.21,14.82Z" style="fill-rule:nonzero;"/>
                <path d="M41.64,14.82C41.647,15.341 41.934,15.819 42.39,16.07C42.634,16.259 42.777,16.551 42.777,16.86C42.777,17.355 42.41,17.779 41.92,17.85C41.754,17.854 41.591,17.808 41.45,17.72C40.394,17.123 39.738,16 39.738,14.786C39.738,13.627 40.337,12.545 41.32,11.93C41.757,11.663 42.024,11.187 42.024,10.675C42.024,10.119 41.708,9.608 41.21,9.36C40.863,9.21 40.637,8.866 40.637,8.488C40.637,7.967 41.066,7.538 41.587,7.538C41.757,7.538 41.924,7.584 42.07,7.67C43.198,8.247 43.91,9.412 43.91,10.679C43.91,11.84 43.312,12.922 42.33,13.54C41.892,13.816 41.63,14.303 41.64,14.82Z" style="fill-rule:nonzero;"/>
            </g>
        </g>
    </g>
</svg>
