<?xml version="1.0" encoding="UTF-8" standalone="no"?>
<!DOCTYPE svg PUBLIC "-//W3C//DTD SVG 1.1//EN" "http://www.w3.org/Graphics/SVG/1.1/DTD/svg11.dtd">
<svg width="100%" height="100%" viewBox="0 0 74 76" version="1.1" xmlns="http://www.w3.org/2000/svg" xmlns:xlink="http://www.w3.org/1999/xlink" xml:space="preserve" xmlns:serif="http://www.serif.com/" style="fill-rule:evenodd;clip-rule:evenodd;stroke-linejoin:round;stroke-miterlimit:2;">
    <g transform="matrix(1,0,0,1,-809.51,-707.036)">
        <g id="noun-hiking-2140909.svg" transform="matrix(1.08722,0,0,1.08722,846.476,750.886)">
            <g transform="matrix(1,0,0,1,-34,-42.5)">
                <g>
                    <path d="M53.8,15.4C53.6,15.1 53.3,14.9 53,14.9C52.7,14.9 52.3,15 52.1,15.3L46.8,22.9L43.7,19.4C43.5,19.2 43.2,19 42.9,19.1C42.6,19.1 42.3,19.3 42.1,19.6L40.7,21.8C38.7,18.6 35.2,16.5 31.3,16.5C27.2,16.5 23.5,18.8 21.5,22.3L21.4,22.2C21.2,22 21,21.9 20.7,21.8C20.4,21.8 20.2,21.9 20,22L1.4,37.8C1,38.2 0.9,38.8 1.3,39.2C1.7,39.6 2.3,39.7 2.7,39.3L10.7,32.5C15.9,35.7 21.8,35.8 26.4,31.4L31.4,37.6C31.6,37.9 31.9,38 32.2,38C32.5,38 32.8,37.8 33,37.5L38.8,28.4C41.9,31.2 45.2,30.8 47.2,26.3C50.7,29.7 54.6,30.3 57.7,26.4L65.1,39.7C65.4,40.2 66,40.4 66.5,40.1C67,39.8 67.2,39.2 66.9,38.7L53.8,15.4ZM12.2,31.2L20.5,24.2L25.1,29.9C20.1,34.8 14.5,32.5 12.2,31.2ZM32.1,35.3L22.9,24C24.3,20.7 27.6,18.5 31.3,18.5C34.8,18.5 38,20.5 39.5,23.7L32.1,35.3ZM39.9,26.7L43.1,21.7L45.8,24.8C44.4,28.3 42.5,29.4 39.9,26.7ZM48.1,24.5L52.8,17.8L56.6,24.6C54.2,28.3 51.2,27.8 48.1,24.5Z" style="fill-rule:nonzero;"/>
                    <path d="M66.7,49.8C67.1,49.4 67.1,48.8 66.7,48.4C54.1,36.6 39.2,42.4 31.4,47C28.6,48.6 25.3,49.9 18.6,45.6C10.6,40.5 1.8,45.4 1.5,45.6C1,45.9 0.9,46.5 1.1,47C1.4,47.5 2,47.6 2.5,47.4C2.6,47.4 10.6,42.9 17.6,47.4C24.2,51.6 28.3,51.2 32.5,48.8C39.8,44.6 53.7,39.1 65.4,50C65.7,50.2 66.4,50.2 66.7,49.8Z" style="fill-rule:nonzero;"/>
                    <path d="M30.3,9.5L30.3,12.7C30.3,13.3 30.7,13.7 31.3,13.7C31.9,13.7 32.3,13.3 32.3,12.7L32.3,9.5C32.3,8.9 31.9,8.5 31.3,8.5C30.7,8.5 30.3,9 30.3,9.5Z" style="fill-rule:nonzero;"/>
                    <path d="M24.8,9.7C24.3,9.9 24,10.5 24.2,11L25.3,14C25.5,14.5 26.1,14.8 26.6,14.6C27.1,14.4 27.4,13.8 27.2,13.3L26.1,10.3C25.8,9.8 25.3,9.5 24.8,9.7Z" style="fill-rule:nonzero;"/>
                    <path d="M22.4,17C22.8,16.6 22.9,16 22.5,15.6L20.4,13.2C20,12.8 19.4,12.7 19,13.1C18.6,13.5 18.5,14.1 18.9,14.5L21,16.9C21.3,17.3 21.9,17.3 22.4,17Z" style="fill-rule:nonzero;"/>
                    <path d="M16.1,17.7C15.6,17.4 15,17.6 14.7,18.1C14.4,18.6 14.6,19.2 15.1,19.5L17.9,21.1C18.4,21.4 19,21.2 19.3,20.7C19.6,20.2 19.4,19.6 18.9,19.3L16.1,17.7Z" style="fill-rule:nonzero;"/>
                    <path d="M41.6,16.8L43.7,14.4C44.1,14 44,13.3 43.6,13C43.2,12.6 42.5,12.7 42.2,13.1L40,15.5C39.6,15.9 39.7,16.6 40.1,16.9C40.6,17.3 41.2,17.3 41.6,16.8Z" style="fill-rule:nonzero;"/>
                    <path d="M37.3,14L38.4,11C38.6,10.5 38.3,9.9 37.8,9.7C37.3,9.5 36.7,9.8 36.5,10.3L35.4,13.3C35.2,13.8 35.5,14.4 36,14.6C36.5,14.7 37.1,14.5 37.3,14Z" style="fill-rule:nonzero;"/>
                    <path d="M35.8,57.6C35.3,57.9 35.2,58.5 35.4,59C35.7,59.5 36.3,59.6 36.8,59.4C36.9,59.3 49.6,52.2 57.1,59.3C57.5,59.7 58.1,59.7 58.5,59.3C58.9,58.9 58.9,58.3 58.5,57.9C49.9,49.7 36.4,57.3 35.8,57.6Z" style="fill-rule:nonzero;"/>
                    <path d="M1.5,57.6C1,57.9 0.9,58.5 1.1,59C1.3,59.5 2,59.6 2.5,59.4C2.6,59.3 15.3,52.2 22.8,59.3C23.2,59.7 23.8,59.7 24.2,59.3C24.6,58.9 24.6,58.3 24.2,57.9C15.6,49.7 2.1,57.3 1.5,57.6Z" style="fill-rule:nonzero;"/>
                </g>
            </g>
        </g>
    </g>
</svg>
