<?xml version="1.0" encoding="UTF-8" standalone="no"?>
<!DOCTYPE svg PUBLIC "-//W3C//DTD SVG 1.1//EN" "http://www.w3.org/Graphics/SVG/1.1/DTD/svg11.dtd">
<svg width="100%" height="100%" viewBox="0 0 80 80" version="1.1" xmlns="http://www.w3.org/2000/svg" xmlns:xlink="http://www.w3.org/1999/xlink" xml:space="preserve" xmlns:serif="http://www.serif.com/"  fill="#273006" style="fill-rule:evenodd;clip-rule:evenodd;stroke-linejoin:round;stroke-miterlimit:2;">
    <g transform="matrix(1,0,0,1,-666.223,-680.836)">
        <g id="noun-cooking-6434211.svg" transform="matrix(2.51689,0,0,2.51689,706.434,725.7)">
            <g transform="matrix(1,0,0,1,-16,-20)">
                <g transform="matrix(1,0,0,1,-8,-9)">
                    <g transform="matrix(0.218914,0,0,0.218914,8.86526,16.9336)">
                        <path d="M28,34.387C25.644,33.199 22.696,33.589 20.728,35.557C19.55,36.735 18.888,38.333 18.888,40C18.888,41.667 19.55,43.265 20.728,44.443C22.115,45.83 23.73,47.445 24.878,48.593C25.706,49.421 26.829,49.887 28,49.887C29.171,49.887 30.294,49.421 31.122,48.593C32.27,47.445 33.885,45.83 35.272,44.443C36.45,43.265 37.112,41.667 37.112,40C37.112,38.333 36.45,36.735 35.272,35.557C33.304,33.589 30.356,33.199 28,34.387ZM32.042,38.787C31.372,38.116 30.285,38.116 29.615,38.787C28.791,39.61 28,39.456 28,39.456C28,39.456 27.209,39.61 26.385,38.787C25.715,38.116 24.628,38.116 23.958,38.787C23.636,39.108 23.456,39.545 23.456,40C23.456,40.455 23.636,40.892 23.958,41.213L28,45.255L32.042,41.213C32.364,40.892 32.544,40.455 32.544,40C32.544,39.545 32.364,39.108 32.042,38.787Z"/>
                    </g>
                    <g transform="matrix(0.218914,0,0,0.218914,16.8653,13.6636)">
                        <path d="M28,34.387C25.765,33.26 22.998,33.553 21.04,35.265C20.933,35.358 20.637,35.649 20.592,35.697C19.499,36.86 18.888,38.399 18.888,40C18.888,41.667 19.55,43.265 20.728,44.443C22.115,45.83 23.73,47.445 24.878,48.593C25.706,49.421 26.829,49.887 28,49.887C29.171,49.887 30.294,49.421 31.122,48.593C32.27,47.445 33.885,45.83 35.272,44.443C36.45,43.265 37.112,41.667 37.112,40C37.112,38.333 36.45,36.735 35.272,35.557C33.304,33.589 30.356,33.199 28,34.387ZM32.042,38.787C31.372,38.116 30.285,38.116 29.615,38.787C28.791,39.61 28,39.456 28,39.456C28,39.456 27.209,39.61 26.385,38.787C25.778,38.18 24.829,38.122 24.158,38.615C24.088,38.666 23.872,38.878 23.833,38.927C23.59,39.23 23.456,39.608 23.456,40C23.456,40.455 23.636,40.892 23.958,41.213L28,45.255L32.042,41.213C32.364,40.892 32.544,40.455 32.544,40C32.544,39.545 32.364,39.108 32.042,38.787Z"/>
                    </g>
                    <g transform="matrix(0.218914,0,0,0.218914,8.86526,10.2036)">
                        <path d="M28,34.387C25.825,33.29 23.145,33.538 21.198,35.131C21.142,35.177 20.511,35.782 20.409,35.9C19.431,37.036 18.888,38.49 18.888,40C18.888,41.667 19.55,43.265 20.728,44.443C22.115,45.83 23.73,47.445 24.878,48.593C25.706,49.421 26.829,49.887 28,49.887C29.171,49.887 30.294,49.421 31.122,48.593C32.27,47.445 33.885,45.83 35.272,44.443C36.45,43.265 37.112,41.667 37.112,40C37.112,38.333 36.45,36.735 35.272,35.557C33.304,33.589 30.356,33.199 28,34.387ZM32.042,38.787C31.372,38.116 30.285,38.116 29.615,38.787C28.791,39.61 28,39.456 28,39.456C28,39.456 27.209,39.61 26.385,38.787C25.805,38.207 24.914,38.129 24.25,38.552C24.146,38.618 23.833,38.923 23.779,38.997C23.57,39.288 23.456,39.638 23.456,40C23.456,40.455 23.636,40.892 23.958,41.213L28,45.255L32.042,41.213C32.364,40.892 32.544,40.455 32.544,40C32.544,39.545 32.364,39.108 32.042,38.787Z"/>
                    </g>
                    <g transform="matrix(0.29138,0,0,0.29138,13.331,4.86477)">
                        <path d="M28,35.032C25.842,33.801 23.051,34.09 21.189,35.9C21.169,35.919 21.075,36.014 21.048,36.042C20.027,37.105 19.456,38.523 19.456,40C19.456,41.516 20.058,42.97 21.13,44.042C22.517,45.429 24.131,47.043 25.28,48.192C26.001,48.913 26.98,49.319 28,49.319C29.02,49.319 29.999,48.913 30.72,48.192C31.869,47.043 33.483,45.429 34.87,44.042C35.942,42.97 36.544,41.516 36.544,40C36.544,38.484 35.942,37.03 34.87,35.958C33.008,34.096 30.182,33.787 28,35.032ZM32.443,38.385C31.552,37.493 30.105,37.493 29.213,38.385C28.594,39.004 28,38.888 28,38.888C28,38.888 27.406,39.004 26.787,38.385C25.937,37.535 24.584,37.495 23.687,38.264C23.642,38.303 23.479,38.466 23.442,38.508C23.086,38.921 22.888,39.45 22.888,40C22.888,40.606 23.128,41.187 23.557,41.615L27.707,45.765C27.784,45.843 27.89,45.887 28,45.887C28.11,45.887 28.216,45.843 28.293,45.765L32.443,41.615C32.872,41.187 33.112,40.606 33.112,40C33.112,39.394 32.872,38.813 32.443,38.385Z"/>
                    </g>
                    <path d="M28.351,29.742L29.914,29.742C30.062,30.416 30.662,30.921 31.38,30.921L37.5,30.921C38.328,30.921 39,30.249 39,29.421L39,29.063C39,28.235 38.328,27.563 37.5,27.563L31.38,27.563C30.662,27.563 30.062,28.068 29.914,28.742L28.06,28.742C28.041,28.742 28.022,28.743 28.003,28.745C27.985,28.743 27.966,28.742 27.947,28.742L23.979,28.742L23.979,28.717C23.979,28.276 23.804,27.852 23.492,27.54C22.949,26.997 22.125,26.907 21.49,27.27C20.867,26.915 20.065,26.994 19.523,27.506C19.511,27.517 19.469,27.558 19.46,27.568C19.165,27.877 19,28.289 19,28.717L19,28.742L9.5,28.742C9.349,28.742 9.206,28.81 9.111,28.928C9.016,29.045 8.979,29.199 9.011,29.347C9.011,29.347 9.359,30.965 9.673,32.43C10.013,34.014 11.413,35.146 13.033,35.146L24.414,35.146C26.034,35.146 27.434,34.014 27.774,32.43L28.351,29.742ZM27.328,29.742L10.119,29.742L10.651,32.221C10.892,33.343 11.884,34.146 13.033,34.146L24.414,34.146C25.563,34.146 26.555,33.343 26.796,32.221L27.328,29.742ZM38,29.063L38,29.421C38,29.697 37.776,29.921 37.5,29.921L31.38,29.921C31.104,29.921 30.88,29.697 30.88,29.421L30.88,29.063C30.88,28.787 31.104,28.563 31.38,28.563L37.5,28.563C37.776,28.563 38,28.787 38,29.063ZM22.979,28.742L22.979,28.717C22.979,28.541 22.909,28.372 22.784,28.247C22.525,27.987 22.103,27.987 21.843,28.247C21.663,28.427 21.49,28.393 21.49,28.393C21.49,28.393 21.316,28.427 21.136,28.247C20.884,27.995 20.481,27.987 20.22,28.223C20.211,28.231 20.165,28.278 20.159,28.286C20.057,28.406 20,28.559 20,28.717L20,28.742L22.979,28.742Z"/>
                </g>
            </g>
        </g>
    </g>
</svg>
