<?xml version="1.0" encoding="UTF-8" standalone="no"?>
<!DOCTYPE svg PUBLIC "-//W3C//DTD SVG 1.1//EN" "http://www.w3.org/Graphics/SVG/1.1/DTD/svg11.dtd">
<svg width="100%" height="100%" viewBox="0 0 74 74" version="1.1" xmlns="http://www.w3.org/2000/svg" xmlns:xlink="http://www.w3.org/1999/xlink" xml:space="preserve" xmlns:serif="http://www.serif.com/" fill="#273006" style="fill-rule:evenodd;clip-rule:evenodd;stroke-linejoin:round;stroke-miterlimit:2;">
    <g transform="matrix(1,0,0,1,-950.618,-709.718)">
        <g id="noun-pan-1055104.svg" transform="matrix(0.739309,0,0,0.739309,987.584,753.243)">
            <g transform="matrix(1,0,0,1,-50,-62.5)">
                <g>
                    <path d="M93.548,57.507L53.874,57.507L53.874,51.554L54.474,51.554C55.275,51.554 55.926,50.904 55.926,50.102C55.926,49.3 55.276,48.65 54.474,48.65L6.452,48.65C5.651,48.65 5,49.301 5,50.102C5,50.903 5.65,51.554 6.452,51.554L7.052,51.554L7.052,67.473C7.052,74.616 12.863,80.427 20.007,80.427L40.92,80.427C48.063,80.427 53.874,74.616 53.874,67.473L53.874,60.41L93.548,60.41C94.349,60.41 95,59.76 95,58.958C95,58.156 94.349,57.507 93.548,57.507ZM50.971,67.473C50.971,73.015 46.462,77.524 40.92,77.524L20.007,77.524C14.464,77.524 9.955,73.015 9.955,67.473L9.955,51.554L50.97,51.554L50.97,67.473L50.971,67.473Z" style="fill-rule:nonzero;"/>
                    <path d="M16.162,35.708C16.365,36.316 16.931,36.7 17.539,36.7C17.691,36.7 17.846,36.676 17.998,36.625C18.759,36.372 19.169,35.55 18.916,34.789C18.357,33.111 18.357,30.274 18.916,28.597C19.668,26.345 19.668,22.817 18.916,20.565C18.663,19.805 17.844,19.393 17.079,19.648C16.319,19.902 15.908,20.724 16.162,21.485C16.722,23.162 16.722,25.999 16.162,27.677C15.411,29.929 15.411,33.457 16.162,35.708Z" style="fill-rule:nonzero;"/>
                    <path d="M28.502,35.708C28.705,36.316 29.271,36.7 29.879,36.7C30.031,36.7 30.186,36.676 30.338,36.625C31.099,36.372 31.509,35.55 31.256,34.789C30.697,33.111 30.697,30.274 31.256,28.597C32.008,26.345 32.008,22.817 31.256,20.565C31.002,19.805 30.183,19.393 29.419,19.648C28.659,19.902 28.248,20.724 28.502,21.485C29.062,23.162 29.062,25.999 28.502,27.677C27.751,29.929 27.751,33.457 28.502,35.708Z" style="fill-rule:nonzero;"/>
                    <path d="M40.842,35.708C41.045,36.316 41.611,36.7 42.219,36.7C42.371,36.7 42.526,36.676 42.678,36.625C43.439,36.372 43.849,35.55 43.596,34.789C43.037,33.111 43.037,30.274 43.596,28.597C44.348,26.345 44.348,22.817 43.596,20.565C43.342,19.805 42.525,19.393 41.759,19.648C40.999,19.902 40.588,20.724 40.842,21.485C41.402,23.162 41.402,25.999 40.842,27.677C40.09,29.929 40.09,33.457 40.842,35.708Z" style="fill-rule:nonzero;"/>
                </g>
            </g>
        </g>
    </g>
</svg>
