<?xml version="1.0" encoding="UTF-8" standalone="no"?>
<!DOCTYPE svg PUBLIC "-//W3C//DTD SVG 1.1//EN" "http://www.w3.org/Graphics/SVG/1.1/DTD/svg11.dtd">
<svg width="100%" height="100%" viewBox="0 0 83 84" version="1.1" xmlns="http://www.w3.org/2000/svg" xmlns:xlink="http://www.w3.org/1999/xlink" xml:space="preserve" xmlns:serif="http://www.serif.com/" style="fill-rule:evenodd;clip-rule:evenodd;stroke-linejoin:round;stroke-miterlimit:2;">
    <g transform="matrix(1,0,0,1,-598.785,-539.185)">
        <g id="noun-gas-stove-5384886.svg" transform="matrix(0.915897,0,0,0.915897,640,590.704)">
            <g transform="matrix(1,0,0,1,-45,-56.25)">
                <path d="M65.993,80.042L64.289,80.042L64.289,68.505C64.289,63.352 62.282,58.508 58.64,54.865C55.876,52.102 52.434,50.295 48.648,49.58L48.648,49.435L57.186,49.435C58.524,49.435 59.675,48.525 59.983,47.222L61.077,42.608L64.753,42.608C65.305,42.608 65.753,42.16 65.753,41.608L65.753,37.857C65.753,37.305 65.305,36.857 64.753,36.857L58.804,36.857C57.466,36.857 56.315,37.767 56.006,39.069L54.912,43.684L48.648,43.684L48.648,43.202L52.592,43.202C53.144,43.202 53.592,42.754 53.592,42.202L53.592,38.751C53.592,38.199 53.144,37.751 52.592,37.751L37.408,37.751C36.856,37.751 36.408,38.199 36.408,38.751L36.408,42.202C36.408,42.754 36.856,43.202 37.408,43.202L41.352,43.202L41.352,43.684L35.088,43.684L33.994,39.069C33.685,37.767 32.534,36.857 31.196,36.857L25.247,36.857C24.695,36.857 24.247,37.305 24.247,37.857L24.247,41.608C24.247,42.16 24.695,42.608 25.247,42.608L28.923,42.608L30.017,47.222C30.325,48.525 31.476,49.435 32.814,49.435L41.352,49.435L41.352,49.586C32.38,51.305 25.711,59.276 25.711,68.505L25.711,80.042L24.007,80.042C22.504,80.042 21.281,81.265 21.281,82.768C21.281,84.27 22.504,85.493 24.007,85.493L65.993,85.493C67.496,85.493 68.719,84.27 68.719,82.768C68.719,81.265 67.496,80.042 65.993,80.042ZM55.703,45.684C56.166,45.684 56.569,45.366 56.676,44.915L57.952,39.531C58.046,39.134 58.396,38.857 58.804,38.857L63.753,38.857L63.753,40.608L60.287,40.608C59.823,40.608 59.42,40.926 59.313,41.377L58.037,46.761C57.943,47.158 57.593,47.435 57.186,47.435L48.648,47.435L48.648,45.684L55.703,45.684ZM38.408,41.202L38.408,39.751L51.592,39.751L51.592,41.202L38.408,41.202ZM46.648,44.696L46.648,48.422C46.648,48.427 46.646,48.43 46.646,48.435C46.646,48.439 46.648,48.442 46.648,48.447L46.648,49.288C45.55,49.192 44.45,49.192 43.352,49.288L43.352,48.447C43.352,48.442 43.354,48.439 43.354,48.435C43.354,48.43 43.352,48.427 43.352,48.422L43.352,44.696C43.352,44.692 43.354,44.688 43.354,44.684C43.354,44.68 43.352,44.676 43.352,44.672L43.352,43.202L46.648,43.202L46.648,44.672C46.648,44.676 46.646,44.68 46.646,44.684C46.646,44.688 46.648,44.692 46.648,44.696ZM32.814,47.435C32.407,47.435 32.057,47.158 31.963,46.761L30.687,41.377C30.58,40.926 30.177,40.608 29.713,40.608L26.247,40.608L26.247,38.857L31.196,38.857C31.604,38.857 31.954,39.134 32.048,39.53L33.324,44.915C33.431,45.366 33.834,45.684 34.297,45.684L41.352,45.684L41.352,47.435L32.814,47.435ZM27.711,68.505C27.711,59.969 34.067,52.616 42.495,51.401C42.495,51.401 42.496,51.401 42.496,51.401C42.497,51.401 42.498,51.401 42.499,51.401C44.15,51.156 45.85,51.156 47.501,51.401C47.503,51.401 47.504,51.401 47.506,51.401C47.506,51.401 47.506,51.401 47.506,51.401C51.201,51.929 54.562,53.616 57.226,56.279C60.491,59.544 62.289,63.886 62.289,68.505L62.289,80.042L27.711,80.042L27.711,68.505ZM65.993,83.493L24.007,83.493C23.607,83.493 23.281,83.167 23.281,82.768C23.281,82.368 23.607,82.042 24.007,82.042L65.993,82.042C66.393,82.042 66.719,82.368 66.719,82.768C66.719,83.167 66.393,83.493 65.993,83.493Z" style="fill-rule:nonzero;"/>
                <path d="M51.991,5.65C51.758,4.965 51.118,4.507 50.396,4.507L50.381,4.507C49.644,4.513 49.02,4.971 48.794,5.672C48.193,7.525 47.052,9.254 45.305,10.956C44.32,11.916 43.212,12.81 42.13,13.682C40.119,15.301 38.039,16.976 36.572,19.226C34.764,21.999 33.594,26.239 35.729,29.823C36.625,31.329 37.922,32.658 39.4,33.578L45.032,36.902C45.3,37.061 45.596,37.137 45.889,37.137C46.333,37.137 46.772,36.96 47.099,36.62L54.106,29.332C56.175,27.365 57.188,24.609 57.038,21.362L57.038,21.362C57.003,20.632 56.507,20.011 55.804,19.816C55.521,19.738 55.229,19.736 54.959,19.803C55.247,18.544 55.256,16.982 54.984,15.129C54.883,14.44 54.382,13.893 53.707,13.734C53.353,13.65 52.996,13.685 52.678,13.816C53.31,11.616 53.085,8.858 51.991,5.65ZM53.102,16.192C53.337,18.467 53.036,20.128 52.23,20.919C52.225,20.924 52.22,20.929 52.215,20.934C51.664,21.483 51.437,22.143 51.592,22.748C51.716,23.231 52.075,23.599 52.553,23.732C53.146,23.896 53.817,23.673 54.389,23.113C54.391,23.11 54.394,23.108 54.396,23.105C54.625,22.878 54.842,22.641 55.046,22.396C54.966,24.651 54.185,26.498 52.696,27.914L45.832,35.052L40.437,31.867C39.245,31.125 38.183,30.036 37.447,28.799C35.782,26.005 36.769,22.586 38.248,20.318C39.54,18.334 41.495,16.761 43.395,15.231C44.503,14.338 45.649,13.414 46.701,12.389C48.416,10.718 49.624,9.001 50.375,7.166C51.215,10.014 51.574,13.509 49.361,15.589C48.697,16.213 48.402,16.938 48.552,17.578C48.662,18.045 49,18.407 49.457,18.544C49.812,18.652 50.539,18.707 51.398,17.896C51.632,17.714 52.352,17.124 53.102,16.192Z" style="fill-rule:nonzero;"/>
                <path d="M43.684,20.949C43.994,20.949 44.299,20.805 44.495,20.535L44.923,19.943C45.246,19.495 45.146,18.87 44.698,18.546C44.25,18.223 43.625,18.324 43.302,18.771L42.874,19.363C42.551,19.811 42.651,20.436 43.099,20.759C43.276,20.887 43.481,20.949 43.684,20.949Z" style="fill-rule:nonzero;"/>
                <path d="M42.417,27.071C41.498,26.29 41.331,24.911 42.038,23.934L42.85,22.81C43.173,22.363 43.073,21.737 42.625,21.414C42.178,21.091 41.553,21.191 41.229,21.638L40.417,22.762C39.103,24.58 39.413,27.142 41.122,28.595L43.465,30.586C43.653,30.747 43.883,30.825 44.112,30.825C44.395,30.825 44.676,30.705 44.874,30.472C45.232,30.052 45.181,29.42 44.76,29.063L42.417,27.071Z" style="fill-rule:nonzero;"/>
                <path d="M42.388,54.705C41.917,54.773 41.445,54.868 40.985,54.988C40.451,55.126 40.13,55.672 40.269,56.207C40.386,56.657 40.792,56.956 41.236,56.956C41.319,56.956 41.404,56.945 41.488,56.923C41.877,56.822 42.276,56.742 42.674,56.685C43.221,56.605 43.6,56.099 43.521,55.552C43.442,55.005 42.931,54.629 42.388,54.705Z" style="fill-rule:nonzero;"/>
                <path d="M37.3,56.593C33.534,58.991 31.285,63.086 31.285,67.549C31.285,68.101 31.732,68.549 32.285,68.549C32.837,68.549 33.285,68.101 33.285,67.549C33.285,63.774 35.188,60.309 38.375,58.28C38.84,57.983 38.978,57.365 38.681,56.899C38.384,56.434 37.767,56.296 37.3,56.593Z" style="fill-rule:nonzero;"/>
            </g>
        </g>
    </g>
</svg>
