<?xml version="1.0" encoding="UTF-8" standalone="no"?>
<!DOCTYPE svg PUBLIC "-//W3C//DTD SVG 1.1//EN" "http://www.w3.org/Graphics/SVG/1.1/DTD/svg11.dtd">
<svg width="100%" height="100%" viewBox="0 0 83 78" version="1.1" xmlns="http://www.w3.org/2000/svg" xmlns:xlink="http://www.w3.org/1999/xlink" xml:space="preserve" xmlns:serif="http://www.serif.com/" fill="#273006" style="fill-rule:evenodd;clip-rule:evenodd;stroke-linejoin:round;stroke-miterlimit:2;">
    <g transform="matrix(1,0,0,1,-239.596,-9.38873)">
        <g id="noun-tech-idea-2209697.svg" transform="matrix(1.3784,0,0,1.3784,280.948,55.7221)">
            <g transform="matrix(1,0,0,1,-30,-37.5)">
                <path d="M10.6,54L49.5,54C52.5,54 55,51.5 55,48.5L55,47.5C55,46.9 54.6,46.5 54,46.5L52.5,46.5L52.5,16.2C52.5,14.4 51,12.9 49.2,12.9L40.8,12.9C40.2,11.6 39.3,10.3 38.2,9.3C35.8,7 32.7,5.8 29.4,6C25,6.2 21,9 19.2,12.9L10.8,12.9C9,12.9 7.5,14.4 7.5,16.2L7.5,46.5L6,46.5C5.4,46.5 5,46.9 5,47.5L5,48.5C5,51.5 7.5,54 10.6,54ZM29.6,8C32.3,7.9 34.9,8.9 36.9,10.8C38.9,12.7 39.9,15.2 39.9,18C39.9,20.8 38.8,23.4 36.7,25.3C34.8,27.1 33.4,29.4 33,31.9L31,31.9L31,21.3C32.4,20.9 33.5,19.5 33.5,18C33.5,16.1 31.9,14.5 30,14.5C28.1,14.5 26.5,16.1 26.5,18C26.5,19.6 27.6,20.9 29,21.3L29,31.9L27,31.9C26.5,29.4 25.2,27.1 23.2,25.2C21,23.2 19.9,20.3 20.1,17.3C20.2,16.3 20.4,15.3 20.8,14.3C22.2,10.8 25.6,8.2 29.6,8ZM33.8,35.9L26.3,35.9C26,35.9 25.7,35.6 25.7,35.3L25.7,34.4C25.7,34.1 26,33.8 26.3,33.8L33.9,33.8C34.2,33.8 34.5,34.1 34.5,34.4L34.5,35.3C34.4,35.7 34.2,35.9 33.8,35.9ZM32.1,37.9C31.7,38.7 30.9,39.2 30,39.2C29.1,39.2 28.3,38.6 27.9,37.9L32.1,37.9ZM30,19.4C29.2,19.4 28.5,18.7 28.5,17.9C28.5,17.1 29.2,16.4 30,16.4C30.8,16.4 31.5,17.1 31.5,17.9C31.5,18.7 30.8,19.4 30,19.4ZM9.5,16.2C9.5,15.5 10.1,14.9 10.8,14.9L18.5,14.9C18.3,15.6 18.2,16.4 18.1,17.1C17.9,20.7 19.3,24.1 21.9,26.5C23.5,28 24.6,30 25,32C24.2,32.4 23.6,33.3 23.6,34.3L23.6,35.2C23.6,36.5 24.6,37.6 25.8,37.8C26.2,39.7 28,41.2 30,41.2C32.1,41.2 33.8,39.8 34.2,37.8C35.4,37.6 36.4,36.5 36.4,35.2L36.4,34.3C36.4,33.3 35.8,32.4 35,32C35.4,29.9 36.5,28 38.1,26.5C40.5,24.3 41.9,21.1 41.9,17.8C41.9,16.8 41.8,15.8 41.5,14.8L49.2,14.8C49.9,14.8 50.5,15.4 50.5,16.1L50.5,46.4L9.5,46.4L9.5,16.2ZM7.1,48.5L53,48.5C53,50.4 51.4,52 49.5,52L10.6,52C8.7,52 7.1,50.4 7.1,48.5Z" style="fill-rule:nonzero;"/>
            </g>
        </g>
    </g>
</svg>
