<?xml version="1.0" encoding="UTF-8" standalone="no"?>
<!DOCTYPE svg PUBLIC "-//W3C//DTD SVG 1.1//EN" "http://www.w3.org/Graphics/SVG/1.1/DTD/svg11.dtd">
<svg width="100%" height="100%" viewBox="0 0 59 59" version="1.1" xmlns="http://www.w3.org/2000/svg" xmlns:xlink="http://www.w3.org/1999/xlink" xml:space="preserve" xmlns:serif="http://www.serif.com/" fill="#273006" style="fill-rule:evenodd;clip-rule:evenodd;stroke-linejoin:round;stroke-miterlimit:2;">
    <g transform="matrix(1,0,0,1,-295.092,-687.733)">
        <g id="noun-thermos-159699.svg" transform="matrix(0.728793,0,0,0.728793,322.754,726.386)">
            <g transform="matrix(1,0,0,1,-50,-62.5)">
                <path d="M32.461,52.283C33.072,52.896 33.072,53.89 32.461,54.504C31.875,55.09 31.875,56.039 32.461,56.625C32.754,56.918 33.137,57.064 33.522,57.064C33.905,57.064 34.29,56.918 34.583,56.625C36.362,54.844 36.364,51.949 34.587,50.167C34.585,50.165 34.585,50.163 34.583,50.161C34.286,49.864 34.122,49.469 34.122,49.049C34.122,48.63 34.284,48.236 34.581,47.94C35.169,47.355 35.169,46.405 34.583,45.819C33.999,45.232 33.05,45.232 32.462,45.817C31.597,46.68 31.122,47.829 31.122,49.05C31.122,50.271 31.599,51.419 32.46,52.282L32.461,52.283ZM26.197,52.283C26.808,52.896 26.808,53.89 26.197,54.504C25.611,55.09 25.611,56.039 26.197,56.625C26.49,56.918 26.873,57.064 27.258,57.064C27.641,57.064 28.026,56.918 28.319,56.625C30.098,54.844 30.1,51.949 28.323,50.167C28.321,50.165 28.321,50.163 28.319,50.161C28.022,49.864 27.858,49.469 27.858,49.049C27.858,48.63 28.02,48.236 28.317,47.94C28.905,47.355 28.905,46.405 28.319,45.819C27.735,45.232 26.786,45.232 26.198,45.817C25.333,46.68 24.858,47.829 24.858,49.05C24.858,50.271 25.335,51.419 26.196,52.282L26.197,52.283ZM69.543,29.863L67.504,29.863C66.951,25.038 63.82,21.612 61.051,19.121C60.776,18.873 60.418,18.736 60.049,18.736L45.836,18.736C45.465,18.736 45.107,18.873 44.832,19.121C41.783,21.864 38.285,25.733 38.285,31.363L38.285,58.377L25.129,58.377C24.682,58.377 24.258,58.576 23.975,58.92C23.69,59.264 23.573,59.717 23.655,60.154L27.399,80.041C27.532,80.75 28.151,81.264 28.874,81.264L66.1,81.264C66.928,81.264 67.6,80.592 67.6,79.764L67.6,59.805L69.543,59.805C73.307,59.805 76.371,56.742 76.371,52.977L76.371,36.691C76.371,32.926 73.307,29.863 69.543,29.863ZM38.285,78.264L30.117,78.264L27.928,66.639L33.283,66.639C34.111,66.639 34.783,65.967 34.783,65.139C34.783,64.311 34.111,63.639 33.283,63.639L27.363,63.639L26.937,61.377L38.285,61.377L38.285,78.264ZM46.416,21.736L59.467,21.736C61.75,23.848 63.975,26.432 64.488,29.863L41.396,29.863C41.91,26.432 44.133,23.848 46.416,21.736ZM64.6,78.264L41.285,78.264L41.285,75.782L64.6,75.782L64.6,78.264ZM64.6,72.781L41.285,72.781L41.285,38.345L64.6,38.345L64.6,72.781ZM64.6,35.345L41.285,35.345L41.285,32.863L64.6,32.863L64.6,35.345ZM73.371,52.977C73.371,55.088 71.652,56.805 69.543,56.805L67.6,56.805L67.6,32.863L69.543,32.863C71.652,32.863 73.371,34.581 73.371,36.691L73.371,52.977ZM45.893,69.926C46.721,69.926 47.393,69.254 47.393,68.426L47.393,42.7C47.393,41.872 46.721,41.2 45.893,41.2C45.065,41.2 44.393,41.872 44.393,42.7L44.393,68.426C44.393,69.254 45.064,69.926 45.893,69.926Z" style="fill-rule:nonzero;"/>
            </g>
        </g>
    </g>
</svg>
