<?xml version="1.0" encoding="UTF-8" standalone="no"?>
<!DOCTYPE svg PUBLIC "-//W3C//DTD SVG 1.1//EN" "http://www.w3.org/Graphics/SVG/1.1/DTD/svg11.dtd">
<svg width="100%" height="100%" viewBox="0 0 92 86" version="1.1" xmlns="http://www.w3.org/2000/svg" xmlns:xlink="http://www.w3.org/1999/xlink" xml:space="preserve" xmlns:serif="http://www.serif.com/" fill="#273006" style="fill-rule:evenodd;clip-rule:evenodd;stroke-linejoin:round;stroke-miterlimit:2;">
    <g transform="matrix(1,0,0,1,-235.255,-116.191)">
        <g id="noun-binoculars-6492969.svg" transform="matrix(0.0854964,0,0,0.0854964,280.948,158.71)">
            <g transform="matrix(1,0,0,1,-600,-600)">
                <g>
                    <path d="M345,642.36C274.801,642.36 217.68,699.481 217.68,769.68C217.68,839.879 274.801,897 345,897C415.199,897 472.32,839.879 472.32,769.68C472.32,699.481 415.199,642.36 345,642.36ZM345,860.88C294.719,860.88 253.68,819.958 253.68,769.56C253.68,719.162 294.602,678.24 345,678.24C395.281,678.24 436.32,719.162 436.32,769.56C436.32,819.962 395.281,860.88 345,860.88Z" style="fill-rule:nonzero;"/>
                    <path d="M233.28,435.24L168.839,674.64C153.601,702.96 144.839,735.242 144.839,769.562C144.839,879.962 234.601,969.722 344.999,969.722C446.039,969.722 529.679,894.363 543.119,796.802L656.999,796.802C670.319,894.243 753.96,969.722 855.119,969.722C965.519,969.722 1055.28,879.96 1055.28,769.562C1055.28,735.242 1046.52,702.843 1031.28,674.64L967.201,436.44C959.162,395.999 935.162,362.042 902.76,340.202C902.76,339.843 902.881,339.6 902.881,339.241L902.881,331.319C902.881,275.518 857.522,230.159 801.721,230.159C745.92,230.159 700.561,275.518 700.561,331.319L700.561,370.799C681.002,395.037 668.522,425.279 666.959,458.639L666.479,469.319L533.639,469.323L533.158,458.522C531.478,425.163 519.119,394.92 499.556,370.803L499.556,331.323C499.556,275.522 454.197,230.163 398.396,230.163C342.595,230.163 297.236,275.522 297.236,331.323L297.236,339.245C297.236,339.483 297.357,339.847 297.357,340.085C265.076,361.804 241.197,395.523 233.279,435.241L233.28,435.24ZM736.44,331.32C736.44,295.441 765.6,266.16 801.6,266.16C834.479,266.16 861.6,290.64 866.041,322.199C850.92,317.16 834.963,314.398 818.4,314.398C788.279,314.398 760.201,323.16 736.56,338.398L736.556,331.32L736.44,331.32ZM702.717,460.44C705.838,398.76 756.596,350.52 818.277,350.52C873.238,350.52 920.997,389.641 932.037,444.719L976.799,611.279C943.08,585.24 900.838,569.638 854.999,569.638C789.601,569.638 731.639,601.318 695.039,649.919L702.717,460.44ZM854.997,605.52C945.477,605.52 1019.16,679.2 1019.16,769.68C1019.16,860.16 945.477,933.84 854.997,933.84C764.517,933.84 690.837,860.16 690.837,769.68C690.837,679.078 764.517,605.52 854.997,605.52ZM654.837,753C654.716,754.68 655.075,756.359 655.439,758.039C655.439,759 655.317,759.961 655.317,761.039L544.677,761.039C544.677,760.078 544.556,759.117 544.556,758.039C544.916,756.481 545.158,754.801 545.158,753L542.517,687.602L657.477,687.602L654.837,753ZM664.798,505.44L658.919,651.6L540.959,651.6L535.197,505.44L664.798,505.44ZM344.998,933.72C254.518,933.72 180.838,860.04 180.838,769.56C180.838,679.08 254.518,605.4 344.998,605.4C435.478,605.4 509.158,679.08 509.158,769.56C509.158,860.162 435.478,933.72 344.998,933.72ZM398.518,266.28C434.397,266.28 463.678,295.44 463.678,331.44L463.678,338.518C440.037,323.397 411.959,314.518 381.838,314.518C365.279,314.518 349.318,317.28 334.197,322.319C338.517,290.639 365.638,266.28 398.517,266.28L398.518,266.28ZM381.717,350.518C443.397,350.518 494.157,398.756 497.277,460.318L504.957,649.918C468.355,601.316 410.398,569.637 344.997,569.637C299.157,569.637 257.036,585.239 223.197,611.278L268.318,443.638C279.123,389.638 326.763,350.517 381.718,350.517L381.717,350.518Z" style="fill-rule:nonzero;"/>
                    <path d="M855,896.88C925.199,896.88 982.32,839.759 982.32,769.56C982.32,699.361 925.199,642.36 855,642.36C784.801,642.36 727.68,699.481 727.68,769.68C727.68,839.879 784.801,896.88 855,896.88ZM855,678.36C905.281,678.36 946.32,719.282 946.32,769.68C946.32,820.078 905.398,861 855,861C804.719,861 763.68,820.078 763.68,769.68C763.68,719.282 804.719,678.36 855,678.36Z" style="fill-rule:nonzero;"/>
                </g>
            </g>
        </g>
    </g>
</svg>
